<?xml version="1.0" encoding="utf-8"?>
<!-- Generator: Adobe Illustrator 16.0.0, SVG Export Plug-In . SVG Version: 6.00 Build 0)  -->
<!DOCTYPE svg PUBLIC "-//W3C//DTD SVG 1.1//EN" "http://www.w3.org/Graphics/SVG/1.1/DTD/svg11.dtd">
<svg version="1.1" xmlns="http://www.w3.org/2000/svg" xmlns:xlink="http://www.w3.org/1999/xlink" x="0px" y="0px" width="24px"
	 height="24px" viewBox="0 0 24 24" enable-background="new 0 0 24 24" xml:space="preserve">
<g id="Lager_1">
	<g>
		<path fill="#BF8A21" d="M12,1c6.065,0,11,4.935,11,11c0,6.065-4.935,11-11,11C5.935,23,1,18.066,1,12C1,5.935,5.935,1,12,1 M12,0
			C5.373,0,0,5.373,0,12c0,6.627,5.373,12,12,12c6.627,0,12-5.373,12-12C24,5.373,18.627,0,12,0L12,0z"/>
	</g>
</g>
<g id="Lager_2">
	<g display="none">
		
			<rect x="-366.607" y="-130.945" display="inline" fill="#006B35" stroke="#006B35" stroke-width="12" stroke-linecap="round" stroke-linejoin="round" stroke-miterlimit="10" width="61.099" height="28.427"/>
		
			<polygon display="inline" fill="#FFFFFF" stroke="#006B35" stroke-width="12" stroke-linecap="round" stroke-linejoin="round" stroke-miterlimit="10" points="
			-366.607,27.657 -366.607,-102.518 -305.508,-102.518 -305.508,27.657 -336.056,77.379 		"/>
		
			<line display="inline" fill="none" stroke="#006B35" stroke-width="12" stroke-linecap="round" stroke-linejoin="round" stroke-miterlimit="10" x1="-336.057" y1="23.771" x2="-336.057" y2="-102.518"/>
		
			<line display="inline" fill="none" stroke="#006B35" stroke-width="12" stroke-linecap="round" stroke-linejoin="round" stroke-miterlimit="10" x1="-366.607" y1="27.657" x2="-305.508" y2="27.657"/>
		<polygon display="inline" fill="#006B35" points="-323.274,55.039 -336.057,75.846 -348.841,55.039 		"/>
	</g>
	<g>
		<g>
			<g>
				<path fill="#BF8A21" d="M17.098,20.372c-0.65,0-1.18-0.529-1.18-1.176c0-2.773,0.692-3.955,1.247-4.861
					c0.554-0.904,0.899-0.904,0.595-2.726c-0.048-0.283-0.101-0.538-0.16-0.759c-1.114,0.824-2.982,0.839-3.648,0.881
					c-0.649,0.041-1.28-0.359-1.28-1.01c0-0.565,0.487-0.995,1.071-0.995c1.099,0,1.992-0.076,2.712-1.194
					c0.29-0.452,0.785-0.671,1.376-0.671c1.317,0,2.433,1.759,2.725,3.507c0.505,3.038-0.531,4.042-1.758,4.678
					c-0.126,0.172-0.52,1.605-0.52,3.146C18.278,19.842,17.75,20.372,17.098,20.372z"/>
			</g>
		</g>
		<g>
			<circle fill="#BF8A21" cx="14.763" cy="6.136" r="2.279"/>
		</g>
		<g>
			<circle fill="#BF8A21" cx="7.135" cy="9.775" r="3.702"/>
		</g>
		<path fill="#BF8A21" d="M10.896,15.825c-0.297-1.113-1.486-2.119-2.981-1.775c-1.305,0.297-2.357,0.887-2.783,1.754
			c-0.527,1.072-0.9,2.967-0.214,5.26l3.451,1.965l4.655,0.457C12.246,20.991,11.453,17.915,10.896,15.825z"/>
		<g>
			<path fill="#BF8A21" d="M12.634,13.717l0.31-0.162c1.309-0.682,2.334-1.586,2.811-2.481c0.339-0.638,0.908-1.019,1.523-1.019
				c0.23,0,0.458,0.054,0.677,0.16c0.355,0.173,0.613,0.47,0.746,0.857c0.162,0.472,0.116,1.044-0.122,1.53
				c-0.756,1.55-2.16,2.938-4.175,4.126l-0.365,0.215L12.634,13.717z"/>
			<path fill="#FFFFFF" d="M17.28,10.431c0.167,0,0.34,0.039,0.512,0.122c0.674,0.329,0.781,1.212,0.451,1.885
				c-0.793,1.627-2.254,2.922-4.028,3.968l-1.097-2.518c1.246-0.649,2.408-1.586,2.969-2.638
				C16.348,10.758,16.792,10.431,17.28,10.431 M17.28,9.681L17.28,9.681c-0.757,0-1.451,0.456-1.855,1.218
				c-0.442,0.829-1.409,1.676-2.653,2.324l-0.62,0.323l0.279,0.642l1.097,2.518l0.338,0.776l0.73-0.43
				c2.079-1.226,3.533-2.668,4.321-4.286c0.281-0.572,0.334-1.251,0.14-1.815c-0.163-0.477-0.496-0.858-0.936-1.073
				C17.849,9.747,17.567,9.681,17.28,9.681L17.28,9.681z"/>
		</g>
		<g>
			<path fill="#BF8A21" d="M8.853,18.129c-0.137,0-0.274-0.004-0.411-0.012c-0.76-0.039-1.345-0.688-1.306-1.449
				c0.041-0.76,0.86-2.422,1.596-2.229c2.364,0.625,6.119-0.705,7.354-3.189c0.339-0.683,1.02-1.031,1.705-0.698
				c0.686,0.334,0.768,1.16,0.42,1.838C16.602,15.532,12.484,17.922,8.853,18.129z"/>
		</g>
	</g>
</g>
</svg>
